<?xml version="1.0" encoding="utf-8"?>
<!-- Generator: Adobe Illustrator 15.0.0, SVG Export Plug-In . SVG Version: 6.00 Build 0)  -->
<!DOCTYPE svg PUBLIC "-//W3C//DTD SVG 1.1//EN" "http://www.w3.org/Graphics/SVG/1.1/DTD/svg11.dtd">
<svg version="1.1" id="Layer_1" xmlns="http://www.w3.org/2000/svg" xmlns:xlink="http://www.w3.org/1999/xlink" x="0px" y="0px"
	 width="98px" height="58px" viewBox="0 0 98 58" enable-background="new 0 0 98 58" xml:space="preserve">
<g>
	<defs>
		<rect id="SVGID_1_" width="98" height="58"/>
	</defs>
	<clipPath id="SVGID_2_">
		<use xlink:href="#SVGID_1_"  overflow="visible"/>
	</clipPath>
	<path clip-path="url(#SVGID_2_)" fill="#56565A" d="M48.932,23.164c-2.725,0-4.958-2.234-4.958-4.959s2.233-4.958,4.958-4.958
		c2.725,0,4.958,2.233,4.958,4.958S51.656,23.164,48.932,23.164 M50.314,28.122l0.691-2.408c0.625-0.173,1.223-0.425,1.775-0.739
		l2.182,1.216l1.955-1.955l-1.216-2.181c0.313-0.553,0.565-1.15,0.738-1.776l2.408-0.691v-2.765L56.44,16.13
		c-0.173-0.626-0.425-1.223-0.738-1.776l1.216-2.181l-1.955-1.955l-2.182,1.216c-0.553-0.314-1.15-0.566-1.775-0.739l-0.691-2.407
		h-2.766l-0.691,2.407c-0.626,0.173-1.223,0.425-1.776,0.739L42.9,10.219l-1.955,1.955l1.216,2.181
		c-0.314,0.553-0.566,1.15-0.739,1.776l-2.407,0.692v2.765l2.407,0.691c0.173,0.626,0.425,1.223,0.739,1.776l-1.216,2.181
		L42.9,26.19l2.181-1.216c0.553,0.314,1.15,0.566,1.776,0.739l0.691,2.408H50.314z"/>
	<path clip-path="url(#SVGID_2_)" fill="#E65525" d="M48.931,16.448c-0.97,0-1.756,0.787-1.756,1.758
		c0,0.968,0.786,1.756,1.756,1.756c0.971,0,1.757-0.788,1.757-1.756C50.688,17.235,49.902,16.448,48.931,16.448"/>
	<path clip-path="url(#SVGID_2_)" fill="#E65525" d="M63.076,8.625L50.153,1.164c-0.742-0.427-1.702-0.427-2.444,0L34.787,8.625
		c-0.753,0.435-1.221,1.245-1.221,2.116v14.922c0,0.87,0.468,1.68,1.221,2.115l12.923,7.461c0.372,0.214,0.794,0.327,1.222,0.327
		c0.428,0,0.85-0.113,1.222-0.327l12.923-7.461c0.752-0.435,1.222-1.245,1.222-2.115V10.741C64.298,9.87,63.828,9.06,63.076,8.625
		 M60.807,24.43c0,0.387-0.208,0.748-0.544,0.941L49.476,31.6c-0.331,0.191-0.757,0.191-1.088,0L37.6,25.371
		c-0.335-0.193-0.543-0.554-0.543-0.941V11.973c0-0.387,0.208-0.748,0.543-0.941l10.788-6.229c0.166-0.095,0.353-0.145,0.544-0.145
		c0.19,0,0.378,0.05,0.544,0.145l10.787,6.229c0.336,0.193,0.544,0.554,0.544,0.941V24.43z"/>
	<path clip-path="url(#SVGID_2_)" fill="#56565A" d="M9.188,44.469v-1.744h-4.27V54.34h4.27v-4.385H7.054v-2.847h5.693v7.943
		c0,1.424-0.712,2.135-2.135,2.135H3.496c-1.424,0-2.135-0.711-2.135-2.135V42.013c0-1.423,0.711-2.135,2.135-2.135h7.116
		c1.423,0,2.135,0.712,2.135,2.135v2.456H9.188z"/>
	<polygon clip-path="url(#SVGID_2_)" fill="#56565A" points="19.15,42.725 19.15,47.109 25.199,47.109 25.199,49.956 19.15,49.956 
		19.15,54.34 25.448,54.34 25.448,57.187 15.592,57.187 15.592,39.878 25.448,39.878 25.448,42.725 	"/>
	<path clip-path="url(#SVGID_2_)" fill="#56565A" d="M51.675,39.878h-9.251v17.309h3.558v-7.223h1.104l3.249,7.223H54l-3.236-7.223
		h0.911c1.423,0,2.135-0.711,2.135-2.135v-5.816C53.81,40.59,53.098,39.878,51.675,39.878 M50.252,47.096h-4.27v-4.371h4.27V47.096z
		"/>
	<path clip-path="url(#SVGID_2_)" fill="#56565A" d="M65.61,48.354v0.356c1.423,0.463,2.135,0.89,2.135,2.312v4.029
		c0,1.424-0.712,2.135-2.135,2.135h-9.251V39.878h9.251c1.423,0,2.135,0.712,2.135,2.135v4.029
		C67.745,47.465,67.033,47.893,65.61,48.354 M64.188,42.725h-4.271v4.385h3.56c0.533,0,0.712-0.178,0.712-0.712V42.725z
		 M64.188,50.667c0-0.533-0.179-0.712-0.712-0.712h-3.56v4.385h4.271V50.667z"/>
	<path clip-path="url(#SVGID_2_)" fill="#56565A" d="M81.978,42.013v13.039c0,1.424-0.712,2.135-2.135,2.135h-7.116
		c-1.424,0-2.135-0.711-2.135-2.135V42.013c0-1.423,0.711-2.135,2.135-2.135h7.116C81.266,39.878,81.978,40.59,81.978,42.013
		 M78.419,42.725h-4.27V54.34h4.27V42.725z"/>
	<polygon clip-path="url(#SVGID_2_)" fill="#56565A" points="93.748,48.532 96.503,57.187 92.906,57.187 90.545,49.955 
		89.834,49.955 87.453,57.187 83.856,57.187 86.632,48.532 83.897,39.877 87.498,39.877 89.834,47.108 90.545,47.108 92.863,39.877 
		96.465,39.877 	"/>
	<path clip-path="url(#SVGID_2_)" fill="#56565A" d="M40.326,57.187h-3.594l-0.738-4.199h-4.613l-0.742,4.199h-3.594l2.729-17.31
		h7.802L40.326,57.187z M35.599,49.964l-1.227-7.315h-1.393l-1.223,7.315H35.599z"/>
</g>
</svg>
